<?xml version="1.0" encoding="UTF-8" standalone="no"?>
<svg
   xmlns:dc="http://purl.org/dc/elements/1.1/"
   xmlns:cc="http://creativecommons.org/ns#"
   xmlns:rdf="http://www.w3.org/1999/02/22-rdf-syntax-ns#"
   xmlns:svg="http://www.w3.org/2000/svg"
   xmlns="http://www.w3.org/2000/svg"
   xmlns:sodipodi="http://sodipodi.sourceforge.net/DTD/sodipodi-0.dtd"
   xmlns:inkscape="http://www.inkscape.org/namespaces/inkscape"
   id="Layer_3"
   data-name="Layer 3"
   viewBox="0 0 1023.67 913.05"
   version="1.1"
   sodipodi:docname="CardDocument.svg"
   inkscape:version="0.92.4 (5da689c313, 2019-01-14)">
  <metadata
     id="metadata25556">
    <rdf:RDF>
      <cc:Work
         rdf:about="">
        <dc:format>image/svg+xml</dc:format>
        <dc:type
           rdf:resource="http://purl.org/dc/dcmitype/StillImage" />
      </cc:Work>
    </rdf:RDF>
  </metadata>
  <sodipodi:namedview
     pagecolor="#ffffff"
     bordercolor="#666666"
     borderopacity="1"
     objecttolerance="10"
     gridtolerance="10"
     guidetolerance="10"
     inkscape:pageopacity="0"
     inkscape:pageshadow="2"
     inkscape:window-width="1278"
     inkscape:window-height="1368"
     id="namedview25554"
     showgrid="false"
     inkscape:zoom="0.73107586"
     inkscape:cx="553.96846"
     inkscape:cy="248.13393"
     inkscape:window-x="1273"
     inkscape:window-y="0"
     inkscape:window-maximized="0"
     inkscape:current-layer="Layer_3" />
  <defs
     id="defs25529">
    <style
       id="style25510">.cls-1{fill:url(#linear-gradient);}.cls-2{fill:#fff;}.cls-2,.cls-3{stroke:#000;stroke-miterlimit:10;stroke-width:7px;}.cls-3,.cls-5{fill:none;}.cls-4{fill:#2bd8ff;}.cls-5{stroke:#fff;stroke-linecap:round;stroke-linejoin:round;stroke-width:19px;}</style>
    <linearGradient
       id="linear-gradient"
       x1="23.93"
       y1="545.19"
       x2="1047.6"
       y2="545.19"
       gradientUnits="userSpaceOnUse">
      <stop
         offset="0"
         stop-color="#8317ff"
         id="stop25512" />
      <stop
         offset="0.36"
         stop-color="#8118ff"
         id="stop25514" />
      <stop
         offset="0.54"
         stop-color="#791cff"
         id="stop25516" />
      <stop
         offset="0.67"
         stop-color="#6c23ff"
         id="stop25518" />
      <stop
         offset="0.79"
         stop-color="#592dff"
         id="stop25520" />
      <stop
         offset="0.9"
         stop-color="#4139ff"
         id="stop25522" />
      <stop
         offset="0.99"
         stop-color="#2449ff"
         id="stop25524" />
      <stop
         offset="1"
         stop-color="#214aff"
         id="stop25526" />
    </linearGradient>
  </defs>
  <path
     class="cls-1"
     d="M943.06,489.27c-38.92-22.42-81.82-41.72-112.83-73.35-75.53-77.06-67.1-212.15-147.42-284.21-54.19-48.62-138.73-53.91-205-23.81-83.13,37.75-139.45,122-224.91,154.17C201.72,281.31,142.78,280.62,97,310.58,20.12,361,6.57,482.53,43.86,560.83c23.84,50,71.39,88.92,115.85,120.28,49.16,34.66,105.62,60.6,165,71.33,29.87,5.39,61,4.66,89.62,14.83,92.3,32.8,131.19,143.87,212.66,198.26,53.57,35.76,123.16,43.72,185.54,27.66s117.62-54.55,160.07-103c34.77-39.68,62-87.21,71.14-139.16,6.35-36.1,3.85-73.14-.11-109.57-2.85-26.2-6.61-52.89-18.48-76.42C1007.77,530.64,976.92,508.78,943.06,489.27Z"
     transform="translate(-23.93 -89.27)"
     id="path25531" />
  <path
     style="stroke:none;fill:#ffffff;fill-opacity:1"
     d="M 256.21094 88.640625 L 256.21094 812.83008 L 775.92969 812.83008 L 775.92969 88.640625 L 256.21094 88.640625 z M 330.56055 155.86914 L 699.89062 155.86914 L 699.89062 169.86914 L 330.56055 169.86914 L 330.56055 155.86914 z M 327.55078 233.44727 L 696.89062 233.44727 L 696.89062 247.44727 L 327.55078 247.44727 L 327.55078 233.44727 z M 327.55078 311.02344 L 696.89062 311.02344 L 696.89062 325.02344 L 327.55078 325.02344 L 327.55078 311.02344 z M 327.55078 388.59961 L 696.89062 388.59961 L 696.89062 402.59961 L 327.55078 402.59961 L 327.55078 388.59961 z M 327.55078 466.17773 L 696.89062 466.17773 L 696.89062 480.17773 L 327.55078 480.17773 L 327.55078 466.17773 z M 327.55078 543.75391 L 696.89062 543.75391 L 696.89062 557.75391 L 327.55078 557.75391 L 327.55078 543.75391 z M 327.55078 621.33008 L 696.89062 621.33008 L 696.89062 635.33008 L 327.55078 635.33008 L 327.55078 621.33008 z "
     id="rect25533" />
  <path
     class="cls-4"
     d="m 443.25402,756.26952 c 0,10.41 -19.06,18.18 -21.63,27.79 -2.65,9.93 9.89,26.18 4.86,34.88 -5.03,8.7 -25.49,6 -32.65,13.21 -7.16,7.21 -4.39,27.54 -13.21,32.65 -8.82,5.11 -24.99,-7.53 -34.88,-4.85 -9.61,2.57 -17.38,21.63 -27.79,21.63 -10.41,0 -18.18,-19.06 -27.79,-21.63 -9.93,-2.65 -26.18,9.89 -34.88,4.86 -8.7,-5.03 -6,-25.49 -13.21,-32.65 -7.21,-7.16 -27.54,-4.39 -32.65,-13.21 -5.11,-8.82 7.51,-24.95 4.86,-34.88 -2.57,-9.61 -21.65,-17.38 -21.65,-27.8 0,-10.42 19.06,-18.18 21.63,-27.79 2.65,-9.93 -9.89,-26.18 -4.86,-34.88 5.03,-8.7 25.49,-6 32.66,-13.21 7.17,-7.21 4.38,-27.54 13.2,-32.65 8.82,-5.11 25,7.51 34.88,4.86 9.61,-2.57 17.38,-21.63 27.79,-21.63 10.41,0 18.18,19.06 27.79,21.63 9.93,2.65 26.18,-9.89 34.88,-4.86 8.7,5.03 6,25.49 13.21,32.66 7.21,7.17 27.54,4.38 32.65,13.2 5.11,8.82 -7.51,24.95 -4.86,34.88 2.59,9.62 21.65,17.39 21.65,27.79 z"
     id="path25549"
     inkscape:connector-curvature="0"
     style="fill:#2bd8ff" />
  <path
     style="fill:none;stroke:#ffffff;stroke-width:20;stroke-linecap:round;stroke-linejoin:miter;stroke-miterlimit:4;stroke-dasharray:none;stroke-opacity:1"
     d="m 254.41956,766.69035 45.13896,38.29972 88.91006,-93.01361"
     id="path26116"
     inkscape:connector-curvature="0" />
</svg>
