<?xml version="1.0" encoding="UTF-8" standalone="no"?>
<svg
   xmlns:dc="http://purl.org/dc/elements/1.1/"
   xmlns:cc="http://creativecommons.org/ns#"
   xmlns:rdf="http://www.w3.org/1999/02/22-rdf-syntax-ns#"
   xmlns:svg="http://www.w3.org/2000/svg"
   xmlns="http://www.w3.org/2000/svg"
   xmlns:sodipodi="http://sodipodi.sourceforge.net/DTD/sodipodi-0.dtd"
   xmlns:inkscape="http://www.inkscape.org/namespaces/inkscape"
   id="Layer_5"
   data-name="Layer 5"
   viewBox="0 0 1025.96 914.74"
   version="1.1"
   sodipodi:docname="CardWebsite.svg"
   inkscape:version="0.92.4 (5da689c313, 2019-01-14)">
  <metadata
     id="metadata27195">
    <rdf:RDF>
      <cc:Work
         rdf:about="">
        <dc:format>image/svg+xml</dc:format>
        <dc:type
           rdf:resource="http://purl.org/dc/dcmitype/StillImage" />
      </cc:Work>
    </rdf:RDF>
  </metadata>
  <sodipodi:namedview
     pagecolor="#ffffff"
     bordercolor="#666666"
     borderopacity="1"
     objecttolerance="10"
     gridtolerance="10"
     guidetolerance="10"
     inkscape:pageopacity="0"
     inkscape:pageshadow="2"
     inkscape:window-width="2560"
     inkscape:window-height="1377"
     id="namedview27193"
     showgrid="false"
     inkscape:zoom="1.0319872"
     inkscape:cx="138.42855"
     inkscape:cy="328.77634"
     inkscape:window-x="-8"
     inkscape:window-y="-8"
     inkscape:window-maximized="1"
     inkscape:current-layer="Layer_5" />
  <defs
     id="defs27168">
    <style
       id="style27153">.cls-1{fill:url(#New_Gradient_Swatch_2);}.cls-2,.cls-4{fill:#fff;}.cls-2,.cls-3{stroke:#000;stroke-miterlimit:10;}.cls-2{stroke-width:7px;}.cls-3{fill:none;stroke-width:3px;}.cls-4{font-size:129.77px;font-family:SourceSansPro-Regular, Source Sans Pro;}</style>
    <linearGradient
       id="New_Gradient_Swatch_2"
       x1="1064.8236"
       y1="595.23328"
       x2="29.711475"
       y2="586.51221"
       gradientUnits="userSpaceOnUse">
      <stop
         offset="0"
         stop-color="#fff"
         id="stop27155" />
      <stop
         offset="0.01"
         stop-color="#1fffac"
         id="stop27157" />
      <stop
         offset="0.19"
         stop-color="#20fbb4"
         id="stop27159" />
      <stop
         offset="0.49"
         stop-color="#23f1ca"
         id="stop27161" />
      <stop
         offset="0.85"
         stop-color="#28e0ed"
         id="stop27163" />
      <stop
         offset="1"
         stop-color="#2bd8ff"
         id="stop27165" />
    </linearGradient>
  </defs>
  <path
     class="cls-1"
     d="M915,844.15c34.82-19.2,65.09-45.87,87.23-82.37,25.46-42,38.92-90.31,46.23-138.88,6.94-46.12,8.16-95.26-12.15-137.26-15.61-32.3-42.51-57.45-68.34-82.35-38.31-36.91-75.55-75-110.78-114.83-34.6-39.15-63.11-85.94-100.63-121.93-67.59-64.82-152.89-87.37-244.94-83.47C466,85,418.75,89.91,379.65,113.4,313.4,153.22,286.81,236.07,279.48,313c-3.3,34.57-4.09,70.57-19.58,101.65-10.52,21.13-27.16,38.49-43.55,55.5C151.79,537.16,51.7,610.34,31,705.94c-8.53,39.45-2.4,80.75,8.83,119.53C54.52,876.1,79.26,926,121.14,958c48.77,37.29,114.94,45.42,175.54,35.54,49.16-8,104.28-25.19,148.5-48.18,47.78-24.83,85.9-45.47,141.14-51.59,51.86-5.75,104.28-3.08,156.38-6C802.29,884.51,863.57,872.48,915,844.15Z"
     transform="translate(-27.02 -82.63)"
     id="path27170"
     style="fill:url(#New_Gradient_Swatch_2)" />
  <path
     style="fill:#ffffff;stroke:none;stroke-width:6.08939743px;stroke-miterlimit:10"
     d="M 197.98828 231.31445 L 197.98828 683.42578 L 827.9707 683.42578 L 827.9707 231.31445 L 197.98828 231.31445 z M 222.95508 253.93164 L 505.24219 253.93164 L 505.24219 288.57227 L 222.95508 288.57227 L 222.95508 253.93164 z M 724.21289 262.1875 A 9.2259106 9.2259106 0 0 1 733.4375 271.41406 A 9.2259106 9.2259106 0 0 1 724.21289 280.63867 A 9.2259106 9.2259106 0 0 1 714.98633 271.41406 A 9.2259106 9.2259106 0 0 1 724.21289 262.1875 z M 760.18555 262.1875 A 9.2259106 9.2259106 0 0 1 769.41016 271.41406 A 9.2259106 9.2259106 0 0 1 760.18555 280.63867 A 9.2259106 9.2259106 0 0 1 750.95898 271.41406 A 9.2259106 9.2259106 0 0 1 760.18555 262.1875 z M 795.69336 262.1875 A 9.2259106 9.2259106 0 0 1 804.91797 271.41406 A 9.2259106 9.2259106 0 0 1 795.69336 280.63867 A 9.2259106 9.2259106 0 0 1 786.4668 271.41406 A 9.2259106 9.2259106 0 0 1 795.69336 262.1875 z M 219.43164 305.85352 L 806.51953 305.85352 L 806.51953 312.85352 L 219.43164 312.85352 L 219.43164 305.85352 z M 324.31641 375.35742 C 326.12637 375.35474 327.94071 376.64733 329.44336 379.25 L 347.99414 411.38086 L 366.1582 442.83789 C 368.85961 447.51684 366.60204 452.375 360.72461 452.375 L 324.32422 452.375 L 286.76758 452.375 C 281.19628 452.375 279.48673 448.03997 282.08984 443.53125 L 300.6543 411.38086 L 319.2168 379.22852 C 320.70166 376.65666 322.50644 375.3601 324.31641 375.35742 z M 506.375 447.25195 C 510.2403 447.24622 514.11523 450.00243 517.32422 455.56055 L 556.93945 524.17969 L 595.72852 591.35547 C 601.49751 601.34767 596.6766 611.72461 584.125 611.72461 L 506.39062 611.72461 L 426.1875 611.72461 C 414.28964 611.72461 410.63815 602.46851 416.19727 592.83984 L 455.84375 524.17969 L 495.48242 455.51758 C 498.65344 450.02522 502.5097 447.25769 506.375 447.25195 z M 717.89844 457.70508 C 719.7084 457.7024 721.52275 458.99303 723.02539 461.5957 L 741.57617 493.72656 L 759.73828 525.18359 C 762.43969 529.86254 760.18212 534.7207 754.30469 534.7207 L 717.90625 534.7207 L 680.34961 534.7207 C 674.77831 534.7207 673.06875 530.38763 675.67188 525.87891 L 694.23633 493.72656 L 712.79883 461.57617 C 714.28369 459.00432 716.08847 457.70776 717.89844 457.70508 z "
     id="rect27172" />
  <text
     class="cls-4"
     id="text27190"
     x="479.31262"
     y="593.47577"
     style="font-size:134.86161804px;font-family:SourceSansPro-Regular, 'Source Sans Pro';fill:#ffffff;stroke-width:1.03923559">
    <tspan
       style="font-style:normal;font-variant:normal;font-weight:bold;font-stretch:normal;font-size:159.28559875px;font-family:SourceSansPro-Regular, 'Source Sans Pro';-inkscape-font-specification:'SourceSansPro-Regular, Source Sans Pro Bold';stroke-width:1.03923559"
       id="tspan27765">!</tspan>
  </text>
</svg>
