<?xml version="1.0" encoding="UTF-8" standalone="no"?>
<svg
   xmlns:dc="http://purl.org/dc/elements/1.1/"
   xmlns:cc="http://creativecommons.org/ns#"
   xmlns:rdf="http://www.w3.org/1999/02/22-rdf-syntax-ns#"
   xmlns:svg="http://www.w3.org/2000/svg"
   xmlns="http://www.w3.org/2000/svg"
   xmlns:xlink="http://www.w3.org/1999/xlink"
   version="1.1"
   viewBox="0 0 932.09 869.47"
   data-name="Layer 1"
   id="Layer_1">
  <metadata
     id="metadata1636">
    <rdf:RDF>
      <cc:Work
         rdf:about="">
        <dc:format>image/svg+xml</dc:format>
        <dc:type
           rdf:resource="http://purl.org/dc/dcmitype/StillImage" />
        <dc:title></dc:title>
      </cc:Work>
    </rdf:RDF>
  </metadata>
  <defs
     id="defs1585">
    <linearGradient
       id="linearGradient2209">
      <stop
         id="stop2205"
         offset="0"
         style="stop-color:#214aff;stop-opacity:1" />
      <stop
         id="stop2207"
         offset="1"
         style="stop-color:#2bd8ff;stop-opacity:1" />
    </linearGradient>
    <style
       id="style1583">.cls-1{fill:#666;}.cls-2{fill:#80e8ff;}.cls-2,.cls-3{fill-rule:evenodd;}.cls-3{fill:#e6e6e6;}.cls-4,.cls-5{fill:none;stroke-linecap:round;stroke-miterlimit:10;stroke-width:4px;}.cls-4{stroke:#000;}.cls-5{stroke:#fff;}.cls-6{fill:#fff;}</style>
    <linearGradient
       gradientUnits="userSpaceOnUse"
       y2="89.915359"
       x2="679.15881"
       y1="959.38531"
       x1="683.55188"
       id="linearGradient2211"
       xlink:href="#linearGradient2209" />
    <linearGradient
       gradientTransform="matrix(0.68723499,0,0,0.68723499,4.0859213,740.70676)"
       xlink:href="#linearGradient2209"
       id="linearGradient1484"
       x1="40.044193"
       y1="43.510746"
       x2="113.88599"
       y2="111.39056"
       gradientUnits="userSpaceOnUse" />
    <linearGradient
       gradientUnits="userSpaceOnUse"
       y2="260.85858"
       x2="852.93713"
       y1="359.02466"
       x1="920.49207"
       id="linearGradient2356"
       xlink:href="#linearGradient2209" />
  </defs>
  <path
     id="path1587"
     d="M 878.9707 240.63086 A 34.029999 34.029999 0 0 0 844.93945 274.66016 A 34.029999 34.029999 0 0 0 867.34961 306.59961 L 867.34961 312.67578 A 49.53 49.53 0 0 0 825.85938 361.53125 L 825.85938 368.10156 L 932.08008 368.10156 L 932.08008 361.53125 A 49.53 49.53 0 0 0 890.58984 312.7168 L 890.58984 306.61523 A 34.029999 34.029999 0 0 0 913 274.66016 A 34.029999 34.029999 0 0 0 878.9707 240.63086 z "
     style="fill:url(#linearGradient2356);fill-opacity:1.0" />
  <path
     style="fill:url(#linearGradient2211);fill-rule:evenodd;fill-opacity:1"
     id="path1593"
     transform="translate(-90.75,-91)"
     d="M 830,460.93363 H 440.3952 c -19.32996,0 -35,-15.67003 -35,-35 V 126 c 0,-19.32997 15.67004,-35 35,-35 H 843 c 19.32997,0 35,15.67003 35,35 v 310.24363 c 0,17.69 13,24.69 13,24.69 -17,0 -42.79,0.47 -46,-22 -1,-7 4,22 -15,22 z"
     class="cls-2" />
  <path
     style="fill:#e6e6e6;fill-rule:evenodd"
     id="path1595"
     d="m 222.25,864.23551 400.65738,0.92105 c 19.32991,0.0444 35,-15.67004 35,-35 l 0,-316.97304 c 0,-19.32997 -15.67008,-34.95696 -35,-35 L 209.25,477.26247 c -19.32992,-0.043 -35,15.67003 -35,35 l 0,327.28304 c 0,17.69 -13,24.69 -13,24.69 17,0 42.79,0.47 46,-22 1,-7 -3.99995,21.95632 15,22 z"
     class="cls-3" />
  <path
     style="fill:none;stroke:#fff8f8;stroke-width:5.11676121px;stroke-linecap:round;stroke-miterlimit:10;stroke-opacity:1"
     id="path1603"
     d="m 370.99622,43.894831 c 16.95236,0 16.95236,6 33.90472,6 16.95235,0 16.95235,-6 33.88835,-6 16.93599,0 16.95235,6 33.90471,6 16.95236,0 16.93599,-6 33.88835,-6 16.95235,0 16.95235,6 33.90471,6 16.95236,0 16.95236,-6 33.88835,-6 16.93599,0 16.95236,6 33.90471,6 16.95236,0 16.95236,-6 33.90472,-6 16.95236,0 16.95236,6 33.90472,6 16.95235,0 16.95235,-6 33.90471,-6 16.95236,0 16.95236,6 33.90471,6"
     class="cls-5" />
  <path
     style="fill:none;stroke:#fff8f8;stroke-width:5.11676121px;stroke-linecap:round;stroke-miterlimit:10;stroke-opacity:1"
     id="path1605"
     d="m 371.00441,94.973508 c 16.93599,0 16.93599,6.000002 33.88835,6.000002 16.95235,0 16.95235,-6.000002 33.90471,-6.000002 16.95235,0 16.93599,6.000002 33.88835,6.000002 16.95235,0 16.95235,-6.000002 33.88835,-6.000002 16.93599,0 16.95235,6.000002 33.90471,6.000002 16.95235,0 16.95235,-6.000002 33.90471,-6.000002 16.95236,0 16.95236,6.000002 33.88835,6.000002 16.93599,0 16.95236,-6.000002 33.90471,-6.000002 16.95236,0 16.95236,6.000002 33.90472,6.000002 16.95235,0 16.95235,-6.000002 33.90471,-6.000002 16.95235,0 16.95235,6.000002 33.90471,6.000002"
     class="cls-5" />
  <path
     style="fill:none;stroke:#fff8f8;stroke-width:5.11676121px;stroke-linecap:round;stroke-miterlimit:10;stroke-opacity:1"
     id="path1607"
     d="m 371.00441,146.05224 c 16.93599,0 16.93599,6 33.88835,6 16.95235,0 16.95235,-6 33.90471,-6 16.95235,0 16.93599,6 33.88835,6 16.95235,0 16.95235,-6 33.88835,-6 16.93599,0 16.95235,6 33.90471,6 16.95235,0 16.95235,-6 33.90471,-6 16.95236,0 16.95236,6 33.88835,6 16.93599,0 16.95236,-6 33.90471,-6 16.95236,0 16.95236,6 33.90472,6 16.95235,0 16.95235,-6 33.90471,-6 16.95235,0 16.95235,6 33.90471,6"
     class="cls-5" />
  <path
     style="fill:none;stroke:#fff8f8;stroke-width:5.11676121px;stroke-linecap:round;stroke-miterlimit:10;stroke-opacity:1"
     id="path1603-5"
     d="m 370.99622,197.13098 c 16.95236,0 16.95236,6 33.90472,6 16.95235,0 16.95235,-6 33.88835,-6 16.93599,0 16.95235,6 33.90471,6 16.95236,0 16.93599,-6 33.88835,-6 16.95235,0 16.95235,6 33.90471,6 16.95236,0 16.95236,-6 33.88835,-6 16.93599,0 16.95236,6 33.90471,6 16.95236,0 16.95236,-6 33.90471,-6 16.95236,0 16.95236,6 33.90472,6 16.95235,0 16.95235,-6 33.90471,-6 16.95236,0 16.95236,6 33.90471,6"
     class="cls-5" />
  <path
     style="fill:none;stroke:#fff8f8;stroke-width:5.11676121px;stroke-linecap:round;stroke-miterlimit:10;stroke-opacity:1"
     id="path1605-2"
     d="m 371.00441,248.20966 c 16.93599,0 16.93599,6 33.88835,6 16.95235,0 16.95235,-6 33.90471,-6 16.95235,0 16.93599,6 33.88835,6 16.95235,0 16.95235,-6 33.88835,-6 16.93599,0 16.95235,6 33.90471,6 16.95235,0 16.95235,-6 33.90471,-6 16.95236,0 16.95236,6 33.88835,6 16.93599,0 16.95236,-6 33.90471,-6 16.95236,0 16.95236,6 33.90472,6 16.95235,0 16.95235,-6 33.90471,-6 16.95235,0 16.95235,6 33.90471,6"
     class="cls-5" />
  <path
     style="fill:none;stroke:#fff8f8;stroke-width:5.11676121px;stroke-linecap:round;stroke-miterlimit:10;stroke-opacity:1"
     id="path1607-9"
     d="m 371.00441,299.2884 c 16.93599,0 16.93599,6 33.88835,6 16.95235,0 16.95235,-6 33.90471,-6 16.95235,0 16.93599,6 33.88835,6 16.95235,0 16.95235,-6 33.88835,-6 16.93599,0 16.95235,6 33.90471,6 16.95235,0 16.95235,-6 33.90471,-6 16.95236,0 16.95236,6 33.88835,6 16.93599,0 16.95236,-6 33.90471,-6 16.95236,0 16.95236,6 33.90472,6 16.95235,0 16.95235,-6 33.90471,-6 16.95235,0 16.95235,6 33.90471,6"
     class="cls-5" />
  <g
     transform="translate(0,70.685768)"
     id="g2249">
    <path
       class="cls-5"
       d="m 223.12731,469.82696 c 16.95236,0 16.95236,6 33.90472,6 16.95235,0 16.95235,-6 33.88835,-6 16.93599,0 16.95235,6 33.90471,6 16.95236,0 16.93599,-6 33.88835,-6 16.95235,0 16.95235,6 33.90471,6 16.95236,0 16.95236,-6 33.88835,-6 16.93599,0 16.95236,6 33.90471,6 16.95236,0 16.95236,-6 33.90472,-6 16.95236,0 16.95236,6 33.90472,6 16.95235,0 16.95235,-6 33.90471,-6 16.95236,0 16.95236,6 33.90471,6"
       id="path1603-7"
       style="fill:none;stroke:#000000;stroke-width:5.11676121px;stroke-linecap:round;stroke-miterlimit:10;stroke-opacity:1" />
    <path
       class="cls-5"
       d="m 223.1355,520.90564 c 16.93599,0 16.93599,6 33.88835,6 16.95235,0 16.95235,-6 33.90471,-6 16.95235,0 16.93599,6 33.88835,6 16.95235,0 16.95235,-6 33.88835,-6 16.93599,0 16.95235,6 33.90471,6 16.95235,0 16.95235,-6 33.90471,-6 16.95236,0 16.95236,6 33.88835,6 16.93599,0 16.95236,-6 33.90471,-6 16.95236,0 16.95236,6 33.90472,6 16.95235,0 16.95235,-6 33.90471,-6 16.95235,0 16.95235,6 33.90471,6"
       id="path1605-7"
       style="fill:none;stroke:#000000;stroke-width:5.11676121px;stroke-linecap:round;stroke-miterlimit:10;stroke-opacity:1" />
    <path
       class="cls-5"
       d="m 223.1355,571.98438 c 16.93599,0 16.93599,6 33.88835,6 16.95235,0 16.95235,-6 33.90471,-6 16.95235,0 16.93599,6 33.88835,6 16.95235,0 16.95235,-6 33.88835,-6 16.93599,0 16.95235,6 33.90471,6 16.95235,0 16.95235,-6 33.90471,-6 16.95236,0 16.95236,6 33.88835,6 16.93599,0 16.95236,-6 33.90471,-6 16.95236,0 16.95236,6 33.90472,6 16.95235,0 16.95235,-6 33.90471,-6 16.95235,0 16.95235,6 33.90471,6"
       id="path1607-6"
       style="fill:none;stroke:#000000;stroke-width:5.11676121px;stroke-linecap:round;stroke-miterlimit:10;stroke-opacity:1" />
    <path
       class="cls-5"
       d="m 223.12731,623.06312 c 16.95236,0 16.95236,6 33.90472,6 16.95235,0 16.95235,-6 33.88835,-6 16.936,0 16.95236,6 33.90472,6 16.95236,0 16.93599,-6 33.88835,-6 16.95235,0 16.95235,6 33.90471,6 16.95236,0 16.95236,-6 33.88835,-6 16.93599,0 16.95236,6 33.90471,6 16.95236,0 16.95236,-6 33.90471,-6 16.95236,0 16.95236,6 33.90472,6 16.95235,0 16.95235,-6 33.90471,-6 16.95236,0 16.95236,6 33.90471,6"
       id="path1603-5-7"
       style="fill:none;stroke:#000000;stroke-width:5.11676121px;stroke-linecap:round;stroke-miterlimit:10;stroke-opacity:1" />
    <path
       class="cls-5"
       d="m 223.1355,674.1418 c 16.93599,0 16.93599,6 33.88835,6 16.95235,0 16.95235,-6 33.90471,-6 16.95235,0 16.93599,6 33.88835,6 16.95235,0 16.95235,-6 33.88835,-6 16.93599,0 16.95235,6 33.90471,6 16.95235,0 16.95235,-6 33.90471,-6 16.95236,0 16.95236,6 33.88835,6 16.93599,0 16.95236,-6 33.90471,-6 16.95236,0 16.95236,6 33.90472,6 16.95235,0 16.95235,-6 33.90471,-6 16.95235,0 16.95235,6 33.90471,6"
       id="path1605-2-4"
       style="fill:none;stroke:#000000;stroke-width:5.11676121px;stroke-linecap:round;stroke-miterlimit:10;stroke-opacity:1" />
    <path
       class="cls-5"
       d="m 223.1355,725.22054 c 16.93599,0 16.93599,6 33.88835,6 16.95235,0 16.95235,-6 33.90471,-6 16.95235,0 16.93599,6 33.88835,6 16.95235,0 16.95235,-6 33.88835,-6 16.93599,0 16.95235,6 33.90471,6 16.95235,0 16.95235,-6 33.90471,-6 16.95236,0 16.95236,6 33.88835,6 16.93599,0 16.95236,-6 33.90471,-6 16.95236,0 16.95236,6 33.90472,6 16.95235,0 16.95235,-6 33.90471,-6 16.95235,0 16.95235,6 33.90471,6"
       id="path1607-9-1"
       style="fill:none;stroke:#000000;stroke-width:5.11676121px;stroke-linecap:round;stroke-miterlimit:10;stroke-opacity:1" />
  </g>
  <path
     id="path4563"
     d="m 71.837132,753.07901 c -15.71143,0 -29.90265,6.6333 -39.94822,17.23188 -0.0397,-0.0184 -0.0798,-0.0352 -0.11946,-0.0537 l -0.16376,0.35167 c -9.19639,9.84711 -14.84266,23.04966 -14.84266,37.54558 0,24.26318 15.801,44.9103 37.64222,52.22583 l -18.9003,-18.9003 A 17.182776,17.182776 0 0 1 30.800342,826.091 c -1.73746,-3.98909 -2.91399,-8.28342 -3.42678,-12.78364 h 12.84404 c 0.009,0.17999 0.0234,0.35743 0.0335,0.5369 a 17.182776,17.182776 0 0 1 13.57558,-0.5369 h 12.85613 v 10.75013 l 5.37439,5.37439 4.93413,-5.2952 v -10.82932 h 10.09242 l 15.806398,-16.96074 c -0.46522,-3.84715 -1.15501,-7.54824 -2.05499,-11.05885 2.63887,-0.76293 5.25465,-1.63049 7.84146,-2.60532 0.99898,1.44473 1.91344,2.95213 2.73954,4.51401 l 7.3247,-7.85891 c -9.708,-15.73752 -27.104848,-26.25721 -46.903788,-26.25721 z m -5.15426,11.77829 v 14.12188 c -3.46814,-0.18473 -6.92718,-0.56163 -10.36356,-1.12884 0.40475,-0.88998 0.82098,-1.75478 1.25635,-2.57176 2.77746,-5.21203 5.94101,-8.63866 9.10721,-10.42128 z m 10.30852,0 c 3.16584,1.78279 6.3287,5.20982 9.10586,10.42128 0.42856,0.80421 0.83855,1.65517 1.23756,2.53015 -3.42951,0.57477 -6.88152,0.9621 -10.34342,1.15568 z m -28.09342,4.82407 c -0.13859,0.25003 -0.28235,0.49414 -0.41744,0.74764 -0.86661,1.62623 -1.66702,3.34605 -2.41069,5.13412 -1.24108,-0.34992 -2.47522,-0.72979 -3.70463,-1.13152 2.02566,-1.77068 4.20803,-3.36455 6.53276,-4.75024 z m 45.87831,0.003 c 2.29849,1.37017 4.457941,2.94438 6.464298,4.69118 -1.21578,0.39999 -2.437047,0.77554 -3.664358,1.12481 -0.7364,-1.76464 -1.52636,-3.46311 -2.3825,-5.06969 -0.13486,-0.25307 -0.27907,-0.49669 -0.41744,-0.7463 z m -59.8324,13.07089 c 2.59958,0.97386 5.22863,1.83985 7.88039,2.59995 -1.39764,5.47583 -2.28876,11.41051 -2.60667,17.6453 h -12.84404 c 0.85075,-7.46665 3.52344,-14.36723 7.57032,-20.24525 z m 55.82979,4.91131 c 1.21054,4.68058 2.03447,9.8566 2.357,15.3326 h -16.13928 v -13.71786 c 4.61651,-0.23234 9.22061,-0.77201 13.78228,-1.61474 z m -37.88248,0.0416 c 4.56568,0.83271 9.17218,1.36088 13.79168,1.58252 v 13.70846 h -16.13526 c 0.32106,-5.45961 1.14004,-10.62147 2.34358,-15.29098 z m 71.895238,35.54428 -34.169798,36.67177 c 16.485408,-6.00291 29.311738,-19.67648 34.169798,-36.67177 z"
     style="color:#000000;font-style:normal;font-variant:normal;font-weight:normal;font-stretch:normal;font-size:medium;line-height:normal;font-family:sans-serif;font-variant-ligatures:normal;font-variant-position:normal;font-variant-caps:normal;font-variant-numeric:normal;font-variant-alternates:normal;font-feature-settings:normal;text-indent:0;text-align:start;text-decoration:none;text-decoration-line:none;text-decoration-style:solid;text-decoration-color:#000000;letter-spacing:normal;word-spacing:normal;text-transform:none;writing-mode:lr-tb;direction:ltr;text-orientation:mixed;dominant-baseline:auto;baseline-shift:baseline;text-anchor:start;white-space:normal;shape-padding:0;clip-rule:nonzero;display:inline;overflow:visible;visibility:visible;opacity:1;isolation:auto;mix-blend-mode:normal;color-interpolation:sRGB;color-interpolation-filters:linearRGB;solid-color:#000000;solid-opacity:1;vector-effect:none;fill:url(#linearGradient1484);fill-opacity:1;fill-rule:nonzero;stroke:none;stroke-width:10.30852509;stroke-linecap:round;stroke-linejoin:miter;stroke-miterlimit:4;stroke-dasharray:none;stroke-dashoffset:0;stroke-opacity:1;paint-order:normal;color-rendering:auto;image-rendering:auto;shape-rendering:auto;text-rendering:auto;enable-background:accumulate" />
  <path
     id="path1524"
     d="m 47.655592,829.32891 24.83794,24.83795 59.842718,-64.2183"
     style="fill:none;stroke:#1fffac;stroke-width:20.61705017;stroke-linecap:round;stroke-linejoin:round;stroke-miterlimit:4;stroke-dasharray:none;stroke-opacity:1" />
</svg>
